# xmcd CD database file
#
# Track frame offsets:
#	150
#	28367
#	46298
#	78131
#	100464
#	120860
#	138509
#	156107
#	175407
#	198718
#	224237
#	253927
#
# Disc length: 3701 seconds
#
# Revision: 0
# Processed by: cddbd v1.5.2PL0 Copyright (c) Steve Scherf et al.
# Submitted via: CDex 1.51
#
DISCID=b30e730c
DTITLE=Brian Crain - One Hour Music - Music For Valentine's Day
DYEAR=2007
DGENRE=New Age
TTITLE0=Andante Cantabile
TTITLE1=Andantino
TTITLE2=Adagio Con Amore
TTITLE3=Allegro Maestoso
TTITLE4=Spring Waltz
TTITLE5=Early Light
TTITLE6=One Morning In June
TTITLE7=Piano Solo
TTITLE8=Andante Affettuoso
TTITLE9=Adagio Appassionato
TTITLE10=Largo Maestoso
TTITLE11=Allegretto
EXTD=YEAR: 2007
EXTT0=
EXTT1=
EXTT2=
EXTT3=
EXTT4=
EXTT5=
EXTT6=
EXTT7=
EXTT8=
EXTT9=
EXTT10=
EXTT11=
PLAYORDER=
